<svg xmlns="http://www.w3.org/2000/svg"  viewBox="0 0 100 100" width="90px" height="90px"><path fill="#c7ede6" d="M87.215,56.71C88.35,54.555,89,52.105,89,49.5c0-6.621-4.159-12.257-10.001-14.478 C78.999,35.015,79,35.008,79,35c0-11.598-9.402-21-21-21c-9.784,0-17.981,6.701-20.313,15.757C36.211,29.272,34.638,29,33,29 c-7.692,0-14.023,5.793-14.89,13.252C12.906,43.353,9,47.969,9,53.5C9,59.851,14.149,65,20.5,65c0.177,0,0.352-0.012,0.526-0.022 C21.022,65.153,21,65.324,21,65.5C21,76.822,30.178,86,41.5,86c6.437,0,12.175-2.972,15.934-7.614C59.612,80.611,62.64,82,66,82 c4.65,0,8.674-2.65,10.666-6.518C77.718,75.817,78.837,76,80,76c6.075,0,11-4.925,11-11C91,61.689,89.53,58.727,87.215,56.71z"/><path fill="#fdfcef" d="M79.5,67.5V68h3v-0.5c0,0,4.242,0,5.5,0c2.485,0,4.5-2.015,4.5-4.5 c0-2.333-1.782-4.229-4.055-4.455C88.467,58.364,88.5,58.187,88.5,58c0-2.485-2.015-4.5-4.5-4.5c-1.438,0-2.703,0.686-3.527,1.736 C80.333,52.6,78.171,50.5,75.5,50.5c-2.761,0-5,2.239-5,5c0,0.446,0.077,0.87,0.187,1.282C70.045,56.005,69.086,55.5,68,55.5 c-1.781,0-3.234,1.335-3.455,3.055C64.364,58.533,64.187,58.5,64,58.5c-2.485,0-4.5,2.015-4.5,4.5s2.015,4.5,4.5,4.5s9.5,0,9.5,0 H79.5z"/><path fill="#472b29" d="M75.5,50c-3.033,0-5.5,2.467-5.5,5.5c0,0.016,0,0.031,0,0.047C69.398,55.192,68.71,55,68,55 c-1.831,0-3.411,1.261-3.858,3.005C64.095,58.002,64.048,58,64,58c-2.757,0-5,2.243-5,5c0,2.757,2.243,5,5,5h15.5 c0.276,0,0.5-0.224,0.5-0.5S79.776,67,79.5,67H64c-2.206,0-4-1.794-4-4c0-2.206,1.794-4,4-4c0.117,0,0.23,0.017,0.343,0.032 l0.141,0.019c0.021,0.003,0.041,0.004,0.062,0.004c0.246,0,0.462-0.185,0.495-0.437C65.232,57.125,66.504,56,68,56 c0.885,0,1.723,0.401,2.301,1.1c0.098,0.118,0.241,0.182,0.386,0.182c0.078,0,0.156-0.018,0.228-0.056 c0.209-0.107,0.314-0.346,0.254-0.573C71.054,56.218,71,55.852,71,55.5c0-2.481,2.019-4.5,4.5-4.5 c2.381,0,4.347,1.872,4.474,4.263c0.011,0.208,0.15,0.387,0.349,0.45c0.05,0.016,0.101,0.024,0.152,0.024 c0.15,0,0.296-0.069,0.392-0.192C81.638,54.563,82.779,54,84,54c2.206,0,4,1.794,4,4c0,0.117-0.017,0.23-0.032,0.343l-0.019,0.141 c-0.016,0.134,0.022,0.268,0.106,0.373c0.084,0.105,0.207,0.172,0.34,0.185C90.451,59.247,92,60.949,92,63c0,2.206-1.794,4-4,4 h-5.5c-0.276,0-0.5,0.224-0.5,0.5s0.224,0.5,0.5,0.5H88c2.757,0,5-2.243,5-5c0-2.397-1.689-4.413-4.003-4.877 C88.999,58.082,89,58.041,89,58c0-2.757-2.243-5-5-5c-1.176,0-2.293,0.416-3.183,1.164C80.219,51.76,78.055,50,75.5,50L75.5,50z"/><path fill="#472b29" d="M74 57c-1.403 0-2.609.999-2.913 2.341C70.72 59.119 70.301 59 69.875 59c-1.202 0-2.198.897-2.353 2.068C67.319 61.022 67.126 61 66.938 61c-1.529 0-2.811 1.2-2.918 2.732C64.01 63.87 64.114 63.99 64.251 64c.006 0 .012 0 .018 0 .13 0 .24-.101.249-.232.089-1.271 1.151-2.268 2.419-2.268.229 0 .47.042.738.127.022.007.045.01.067.01.055 0 .11-.02.156-.054C67.962 61.537 68 61.455 68 61.375c0-1.034.841-1.875 1.875-1.875.447 0 .885.168 1.231.473.047.041.106.063.165.063.032 0 .063-.006.093-.019.088-.035.148-.117.155-.212C71.623 58.512 72.712 57.5 74 57.5c.208 0 .425.034.682.107.023.007.047.01.07.01.109 0 .207-.073.239-.182.038-.133-.039-.271-.172-.309C74.517 57.04 74.256 57 74 57L74 57zM87.883 58.5c-1.326 0-2.508.897-2.874 2.182-.038.133.039.271.172.309C85.205 60.997 85.228 61 85.25 61c.109 0 .209-.072.24-.182C85.795 59.748 86.779 59 87.883 59c.117 0 .23.014.342.029.012.002.023.003.035.003.121 0 .229-.092.246-.217.019-.137-.077-.263-.214-.281C88.158 58.516 88.022 58.5 87.883 58.5L87.883 58.5z"/><path fill="#fff" d="M30.5 78h-10c-.276 0-.5-.224-.5-.5s.224-.5.5-.5h10c.276 0 .5.224.5.5S30.777 78 30.5 78zM33.5 78h-1c-.276 0-.5-.224-.5-.5s.224-.5.5-.5h1c.276 0 .5.224.5.5S33.777 78 33.5 78zM38.491 80H29.5c-.276 0-.5-.224-.5-.5s.224-.5.5-.5h8.991c.276 0 .5.224.5.5S38.767 80 38.491 80zM27.5 80h-1c-.276 0-.5-.224-.5-.5s.224-.5.5-.5h1c.276 0 .5.224.5.5S27.777 80 27.5 80zM24.5 80h-2c-.276 0-.5-.224-.5-.5s.224-.5.5-.5h2c.276 0 .5.224.5.5S24.777 80 24.5 80zM30.5 82h-2c-.276 0-.5-.224-.5-.5s.224-.5.5-.5h2c.276 0 .5.224.5.5S30.776 82 30.5 82zM33.5 73c-.177 0-.823 0-1 0-.276 0-.5.224-.5.5 0 .276.224.5.5.5.177 0 .823 0 1 0 .276 0 .5-.224.5-.5C34 73.224 33.776 73 33.5 73zM33.5 75c-.177 0-4.823 0-5 0-.276 0-.5.224-.5.5 0 .276.224.5.5.5.177 0 4.823 0 5 0 .276 0 .5-.224.5-.5C34 75.224 33.776 75 33.5 75zM38.5 77c-.177 0-2.823 0-3 0-.276 0-.5.224-.5.5 0 .276.224.5.5.5.177 0 2.823 0 3 0 .276 0 .5-.224.5-.5C39 77.224 38.776 77 38.5 77z"/><g><path fill="#fff" d="M72.5 24h-10c-.276 0-.5-.224-.5-.5s.224-.5.5-.5h10c.276 0 .5.224.5.5S72.776 24 72.5 24zM76.5 24h-2c-.276 0-.5-.224-.5-.5s.224-.5.5-.5h2c.276 0 .5.224.5.5S76.776 24 76.5 24zM81.5 26h-10c-.276 0-.5-.224-.5-.5s.224-.5.5-.5h10c.276 0 .5.224.5.5S81.777 26 81.5 26zM69.5 26h-1c-.276 0-.5-.224-.5-.5s.224-.5.5-.5h1c.276 0 .5.224.5.5S69.776 26 69.5 26zM66.47 26H64.5c-.276 0-.5-.224-.5-.5s.224-.5.5-.5h1.97c.276 0 .5.224.5.5S66.746 26 66.47 26zM75.5 22h-5c-.276 0-.5-.224-.5-.5s.224-.5.5-.5h5c.276 0 .5.224.5.5S75.777 22 75.5 22zM72.5 28h-2c-.276 0-.5-.224-.5-.5s.224-.5.5-.5h2c.276 0 .5.224.5.5S72.776 28 72.5 28z"/></g><g><path fill="#00a5a5" d="M52 26.75A23.25 23.25 0 1 0 52 73.25A23.25 23.25 0 1 0 52 26.75Z"/><path fill="#472b29" d="M52,73.95c-13.206,0-23.95-10.744-23.95-23.95S38.794,26.05,52,26.05S75.95,36.794,75.95,50 S65.206,73.95,52,73.95z M52,27.45c-12.435,0-22.55,10.115-22.55,22.55S39.565,72.55,52,72.55S74.55,62.435,74.55,50 S64.435,27.45,52,27.45z"/></g><g><path fill="#472b29" d="M70.623,44.987c-0.214,0-0.412-0.138-0.478-0.353c-0.085-0.275-0.175-0.548-0.272-0.816 c-0.375-1.048-0.849-2.069-1.407-3.036c-0.139-0.239-0.057-0.545,0.183-0.683c0.234-0.14,0.543-0.057,0.683,0.183 c0.589,1.019,1.088,2.095,1.483,3.197c0.102,0.283,0.197,0.571,0.286,0.86c0.082,0.265-0.066,0.544-0.33,0.625 C70.721,44.98,70.672,44.987,70.623,44.987z"/></g><g><path fill="#472b29" d="M32.829,46.804c-0.032,0-0.064-0.003-0.097-0.01c-0.271-0.053-0.448-0.315-0.395-0.586 c1.83-9.343,10.1-16.123,19.662-16.123c5.733,0,11.203,2.457,15.007,6.74c0.287,0.323,0.565,0.657,0.831,1 c0.169,0.219,0.129,0.533-0.089,0.702c-0.221,0.167-0.533,0.128-0.702-0.089c-0.252-0.325-0.515-0.642-0.788-0.949 c-3.613-4.07-8.811-6.404-14.259-6.404c-9.085,0-16.942,6.44-18.682,15.314C33.272,46.639,33.063,46.804,32.829,46.804z"/></g><g><path fill="#472b29" d="M52,70.035c-8.33,0-15.878-5.228-18.782-13.008c-0.097-0.259,0.035-0.547,0.294-0.644 c0.256-0.097,0.546,0.034,0.644,0.294c2.759,7.392,9.93,12.357,17.845,12.357c10.496,0,19.035-8.513,19.035-18.976 c0-0.949-0.071-1.907-0.213-2.847c-0.041-0.272,0.146-0.527,0.42-0.568c0.271-0.034,0.528,0.146,0.568,0.42 c0.149,0.988,0.225,1.996,0.225,2.995C72.035,61.074,63.048,70.035,52,70.035z"/></g><g><path fill="#fdfcef" d="M38.5,37.5c0,0,1.567,0,3.5,0s3.5-1.567,3.5-3.5c0-1.781-1.335-3.234-3.055-3.455 C42.473,30.366,42.5,30.187,42.5,30c0-1.933-1.567-3.5-3.5-3.5c-1.032,0-1.95,0.455-2.59,1.165 c-0.384-1.808-1.987-3.165-3.91-3.165c-2.209,0-4,1.791-4,4c0,0.191,0.03,0.374,0.056,0.558C28.128,28.714,27.592,28.5,27,28.5 c-1.228,0-2.245,0.887-2.455,2.055C24.366,30.527,24.187,30.5,24,30.5c-1.933,0-3.5,1.567-3.5,3.5s1.567,3.5,3.5,3.5s7.5,0,7.5,0 V38h7V37.5z"/><path fill="#472b29" d="M40.25 33C40.112 33 40 32.888 40 32.75c0-1.223.995-2.218 2.218-2.218.034.009.737-.001 1.244.136.133.036.212.173.176.306-.036.134-.173.213-.306.176-.444-.12-1.1-.12-1.113-.118-.948 0-1.719.771-1.719 1.718C40.5 32.888 40.388 33 40.25 33zM33.5 37A.5.5 0 1 0 33.5 38 .5.5 0 1 0 33.5 37z"/><path fill="#472b29" d="M42,38h-3.5c-0.276,0-0.5-0.224-0.5-0.5s0.224-0.5,0.5-0.5H42c1.654,0,3-1.346,3-3 c0-1.496-1.125-2.768-2.618-2.959c-0.134-0.018-0.255-0.088-0.336-0.196s-0.115-0.244-0.094-0.377C41.975,30.314,42,30.16,42,30 c0-1.654-1.346-3-3-3c-0.85,0-1.638,0.355-2.219,1c-0.125,0.139-0.321,0.198-0.5,0.148c-0.182-0.049-0.321-0.195-0.36-0.379 C35.58,26.165,34.141,25,32.5,25c-1.93,0-3.5,1.57-3.5,3.5c0,0.143,0.021,0.28,0.041,0.418c0.029,0.203-0.063,0.438-0.242,0.54 c-0.179,0.102-0.396,0.118-0.556-0.01C27.878,29.155,27.449,29,27,29c-0.966,0-1.792,0.691-1.963,1.644 c-0.048,0.267-0.296,0.446-0.569,0.405C24.314,31.025,24.16,31,24,31c-1.654,0-3,1.346-3,3s1.346,3,3,3h7.5 c0.276,0,0.5,0.224,0.5,0.5S31.776,38,31.5,38H24c-2.206,0-4-1.794-4-4s1.794-4,4-4c0.059,0,0.116,0.002,0.174,0.006 C24.588,28.82,25.711,28,27,28c0.349,0,0.689,0.061,1.011,0.18C28.176,25.847,30.126,24,32.5,24c1.831,0,3.466,1.127,4.153,2.774 C37.333,26.276,38.155,26,39,26c2.206,0,4,1.794,4,4c0,0.048-0.001,0.095-0.004,0.142C44.739,30.59,46,32.169,46,34 C46,36.206,44.206,38,42,38z"/><path fill="#472b29" d="M36.5,37c-0.159,0-0.841,0-1,0c-0.276,0-0.5,0.224-0.5,0.5c0,0.276,0.224,0.5,0.5,0.5 c0.159,0,0.841,0,1,0c0.276,0,0.5-0.224,0.5-0.5C37,37.224,36.776,37,36.5,37z"/></g><g><path fill="#f9e65c" d="M58.411,37.5c-4.467,0-8.089,3.622-8.089,8.089c0,0.345,0.029,0.683,0.071,1.016l-3.173,4.23 c-3.038,0.131-5.462,2.627-5.462,5.697c0,3.153,2.556,5.71,5.71,5.71c3.153,0,5.71-2.557,5.71-5.71l4.356-2.904 c0.288,0.031,0.581,0.049,0.877,0.049c4.467,0,8.089-3.622,8.089-8.089S62.878,37.5,58.411,37.5z"/><path fill="#472b29" d="M47.468,62.742c-3.424,0-6.21-2.786-6.21-6.21c0-3.251,2.485-5.922,5.701-6.182l2.914-3.886 c-0.03-0.288-0.051-0.58-0.051-0.876c0-4.736,3.853-8.589,8.589-8.589S67,40.853,67,45.589s-3.853,8.589-8.589,8.589 c-0.253,0-0.502-0.013-0.748-0.034l-3.992,2.66C53.528,60.103,50.801,62.742,47.468,62.742z M58.411,38 c-4.185,0-7.589,3.404-7.589,7.589c0,0.324,0.028,0.642,0.066,0.956l0.024,0.199l-3.435,4.58l-0.236,0.011 c-2.795,0.12-4.984,2.403-4.984,5.197c0,2.873,2.337,5.21,5.21,5.21c2.872,0,5.209-2.337,5.209-5.21v-0.268l4.731-3.153l0.18,0.02 c0.271,0.029,0.545,0.047,0.823,0.047c4.185,0,7.589-3.404,7.589-7.589S62.596,38,58.411,38z"/></g><g><path fill="#00a5a5" d="M58.411 41.307A4.282 4.282 0 1 0 58.411 49.870999999999995A4.282 4.282 0 1 0 58.411 41.307Z"/><path fill="#472b29" d="M58.411,50.371c-2.637,0-4.782-2.146-4.782-4.782s2.146-4.782,4.782-4.782s4.782,2.146,4.782,4.782 S61.048,50.371,58.411,50.371z M58.411,41.807c-2.086,0-3.782,1.696-3.782,3.782s1.696,3.782,3.782,3.782s3.782-1.696,3.782-3.782 S60.497,41.807,58.411,41.807z"/></g><g><path fill="#f9e65c" d="M46.236,58.468l-16.81-6.357c-0.119-1.289-0.164-2.691,0.053-4.171l18.141,6.878 c1.008,0.382,1.515,1.509,1.133,2.517v0C48.371,58.343,47.244,58.85,46.236,58.468z"/></g><g><path fill="#472b29" d="M46.93,59.096c-0.294,0-0.588-0.053-0.871-0.16l-17.235-6.515c-0.259-0.098-0.389-0.387-0.291-0.645 s0.383-0.388,0.645-0.291L46.413,58c0.363,0.138,0.757,0.127,1.111-0.033c0.354-0.159,0.624-0.446,0.761-0.809 c0.138-0.363,0.126-0.758-0.033-1.111s-0.446-0.624-0.809-0.761l-18.442-6.999c-0.258-0.099-0.388-0.387-0.29-0.646 c0.099-0.258,0.386-0.383,0.646-0.29l18.441,6.999c0.612,0.232,1.098,0.688,1.366,1.286s0.289,1.264,0.057,1.876 s-0.688,1.098-1.286,1.366C47.613,59.023,47.271,59.096,46.93,59.096z"/></g></svg>