<svg height="512" viewBox="0 0 512 512" width="512" xmlns="http://www.w3.org/2000/svg"><g><path d="m280 344a88.1 88.1 0 0 0 88-88v-160a88.1 88.1 0 0 0 -88-88h-48a88.1 88.1 0 0 0 -88 88v160a88.1 88.1 0 0 0 87.93 88v70.64l-26.92-26.92a8 8 0 0 0 -11.31 0l-22.63 22.63a8 8 0 0 0 0 11.31l79.2 79.2a8 8 0 0 0 11.31 0l79.2-79.2a8 8 0 0 0 0-11.31l-22.63-22.63a8 8 0 0 0 -11.31 0l-26.92 26.92v-70.64zm-120-248a72.083 72.083 0 0 1 72-72h48a72.083 72.083 0 0 1 72 72v40h-192zm152.49 308.69 11.32 11.31-67.89 67.88-67.88-67.88 11.32-11.31 34.91 34.92a8 8 0 0 0 13.66-5.66v-186.3h15.99v186.3a8 8 0 0 0 13.66 5.66zm-40.57-173.04h-31.99a8 8 0 0 0 -8 8v88.35a72.081 72.081 0 0 1 -71.93-72v-104h192v104a72.083 72.083 0 0 1 -72 72h-.08v-88.35a8 8 0 0 0 -8-8z"/><path d="m240 120h32a8 8 0 0 0 8-8v-64a8 8 0 0 0 -8-8h-32a8 8 0 0 0 -8 8v64a8 8 0 0 0 8 8zm8-64h16v48h-16z"/></g></svg>